<?xml version="1.0" standalone="no"?>
<!DOCTYPE svg PUBLIC "-//W3C//DTD SVG 20010904//EN"
 "http://www.w3.org/TR/2001/REC-SVG-20010904/DTD/svg10.dtd">
<svg version="1.0" xmlns="http://www.w3.org/2000/svg"
 width="16.000000pt" height="16.000000pt" viewBox="0 0 16.000000 16.000000"
 preserveAspectRatio="xMidYMid meet">
<metadata>
Created by potrace 1.11, written by Peter Selinger 2001-2013
</metadata>
<g transform="translate(0.000000,16.000000) scale(0.005333,-0.005333)"
fill="#000000" stroke="none">
<path d="M1829 2996 c-2 -2 -21 -7 -43 -10 -104 -17 -234 -74 -336 -149 -62
-45 -167 -153 -176 -179 -3 -10 -10 -18 -15 -18 -5 0 -9 -6 -9 -14 0 -8 -4
-16 -9 -18 -5 -1 -20 -25 -35 -53 -15 -27 -35 -63 -45 -80 -10 -16 -29 -50
-43 -75 -14 -25 -58 -101 -98 -170 -39 -69 -82 -143 -95 -165 -12 -22 -114
-197 -226 -390 -309 -534 -296 -503 -236 -550 27 -22 445 -268 471 -278 8 -3
-27 -73 -79 -159 -5 -9 -32 -56 -60 -104 -27 -48 -57 -99 -65 -113 -119 -203
-124 -214 -124 -271 0 -151 150 -244 286 -177 29 15 59 37 67 49 8 13 59 100
113 193 54 94 103 177 108 185 5 8 30 52 55 97 26 46 50 85 53 87 4 2 77 -36
162 -86 85 -49 173 -100 195 -113 22 -12 60 -34 85 -49 49 -28 95 -33 122 -13
9 7 59 88 112 179 53 92 105 182 115 200 34 56 116 202 120 213 2 6 7 12 10
15 4 3 39 61 78 130 39 69 116 204 172 300 l101 175 -48 6 c-89 11 -99 26 -95
139 12 329 10 347 -26 383 -10 11 -37 23 -58 26 l-38 7 44 15 c25 8 54 27 65
42 21 28 23 73 15 342 -2 55 0 109 4 120 10 29 39 44 91 46 25 2 46 6 46 11 0
25 -155 145 -252 194 -109 55 -196 75 -344 80 -72 2 -132 2 -135 0z"/>
</g>
</svg>
